<svg width="99" height="100" viewBox="0 0 99 100" fill="none" xmlns="http://www.w3.org/2000/svg">
<path d="M97.1562 40.9905C97.7399 44.3464 98.0306 47.7467 98.025 51.153C98.025 66.3655 92.5875 79.228 83.125 87.9342H83.1375C74.8625 95.578 63.4875 100.003 50 100.003C36.7392 100.003 24.0215 94.7351 14.6447 85.3583C5.26784 75.9815 0 63.2638 0 50.003C0 36.7422 5.26784 24.0245 14.6447 14.6476C24.0215 5.27083 36.7392 0.00298752 50 0.00298752C62.4108 -0.135225 74.3951 4.52684 83.45 13.0155L69.175 27.2905C64.0138 22.3733 57.1277 19.68 50 19.7905C36.9562 19.7905 25.875 28.5905 21.925 40.4405C19.8343 46.6505 19.8343 53.3742 21.925 59.5842H21.9438C25.9125 71.4155 36.975 80.2155 50.0188 80.2155C56.7563 80.2155 62.5438 78.4905 67.0312 75.4405H67.0125C69.6187 73.7148 71.8479 71.4787 73.5656 68.8672C75.2833 66.2558 76.4538 63.3232 77.0062 60.2467H50V40.9967L97.1562 40.9905Z" fill="black"/>
</svg>
